<svg xmlns="http://www.w3.org/2000/svg" version="1.2" viewBox="0 0 500 97" width="500" height="97"><style>.a{fill:#024430}.b{fill:#4d7c6e}</style><path class="a" d="m128.2 73c-2.4 1.2-4.8 1.7-7.3 1.7-7.8 0-13.1-5.4-13.1-13 0-7.7 5.3-12.9 13.2-12.9 4.1 0 7.5 1.4 10.5 4.5l6-5.5c-3.9-4.6-9.8-7-17-7-12.9 0-22.2 8.7-22.2 20.9 0 12.3 9.3 21 22.1 21 5.8 0 11.9-1.8 16.4-5.2v-16.4h-8.6zm25.2-18v-4.1h-8.6v31.1h9v-14.7c0-5.9 3.3-8.7 8.3-8.7 0.7 0 1.3 0.1 2 0.2v-8.4c-4.8 0-8.5 1.6-10.7 4.6zm46.3 11.6c0-10-7-16.2-16.2-16.2-9.5 0-16.6 6.7-16.6 16.1 0 9.2 7 16 17.8 16 5.6 0 10-1.7 12.8-5l-4.8-5.3c-2.1 2.1-4.5 3.1-7.8 3.1-4.7 0-8-2.4-8.9-6.3h23.6c0-0.7 0.1-1.7 0.1-2.4zm-16.1-9.3c4 0 7 2.5 7.6 6.4h-15.3c0.6-4 3.6-6.4 7.7-6.4zm52.7 9.3c0-10-7.1-16.2-16.2-16.2-9.5 0-16.6 6.7-16.6 16.1 0 9.2 7 16 17.7 16 5.6 0 10-1.7 12.9-5l-4.8-5.3c-2.2 2.1-4.5 3.1-7.8 3.1-4.8 0-8.1-2.4-9-6.3h23.6c0.1-0.7 0.2-1.7 0.2-2.4zm-16.2-9.3c4.1 0 7 2.5 7.7 6.4h-15.4c0.7-4 3.6-6.4 7.7-6.4zm41.1-6.9c-4.2 0-7.8 1.5-10.3 4.1v-3.6h-8.6v31.1h9v-15.4c0-5.7 3.2-8.4 7.5-8.4 4 0 6.3 2.4 6.3 7.4v16.4h9v-17.8c0-9.5-5.5-13.8-12.9-13.8zm49.1 22.6c-2.4 1.3-4.7 1.7-7.3 1.7-7.7 0-13.1-5.3-13.1-12.9 0-7.7 5.4-13 13.2-13 4.2 0 7.6 1.4 10.5 4.6l6-5.6c-3.9-4.6-9.8-7-16.9-7-12.9 0-22.3 8.8-22.3 21 0 12.2 9.4 20.9 22.1 20.9 5.8 0 11.9-1.8 16.4-5.1v-16.5h-8.6zm31.5 9.5c9.9 0 17-6.6 17-16 0-9.4-7.1-16-17-16-9.9 0-17.2 6.6-17.2 16 0 9.4 7.3 16 17.2 16zm0-7.4c-4.6 0-8-3.2-8-8.6 0-5.4 3.4-8.6 8-8.6 4.5 0 7.9 3.2 7.9 8.6 0 5.4-3.4 8.6-7.9 8.6zm44.4-24.2l-8.9 21.2-8.6-21.2h-9.3l13 31.2h9.4l13.1-31.2zm42 15.7c0-10-7-16.1-16.2-16.1-9.5 0-16.6 6.7-16.6 16 0 9.3 7 16 17.8 16 5.6 0 9.9-1.7 12.8-5l-4.8-5.2c-2.1 2-4.5 3-7.8 3-4.7 0-8-2.4-8.9-6.3h23.6c0-0.7 0.1-1.7 0.1-2.4zm-16.1-9.3c4 0 7 2.5 7.6 6.5h-15.3c0.6-4 3.6-6.5 7.7-6.5zm30.8-2.3v-4.1h-8.6v31.2h9v-14.7c0-6 3.3-8.7 8.3-8.7 0.7 0 1.2 0 2 0.1v-8.3c-4.8 0-8.5 1.5-10.7 4.5zm35-4.5c-4.2 0-7.9 1.4-10.3 4.1v-3.7h-8.6v31.2h9v-15.4c0-5.8 3.1-8.4 7.5-8.4 4 0 6.3 2.3 6.3 7.3v16.5h9v-17.9c0-9.5-5.5-13.7-12.9-13.7z"/><path class="b" d="m36.7 83.7c-1.8 3.8-6.4 6.6-13.1 4.1-24.2-10.6-25-46 4.2-56.7-1.9-2.8-3.1-6.2-3.1-9.9 0-9.5 7.7-17.2 17.2-17.2 9.5 0 17.2 7.7 17.2 17.2 0 3.7-1.1 7.1-3.1 9.9 15.1 5.5 24.7 19.6 21.7 34.7-1.1 5.9-3.4 11.1-8.5 15.6-3.3 2.9-9.1 7.2-18.4 8.2-4.8 0.6-8.5-2-6.3-5.3 1.7-2.5 8.5-13.9 10.9-18 1.2-2-0.4-4.6-2.8-4.6h-7.8c-1.9 0-3.1-1.3-2.4-3.3 1.9-5 1.9-5.1 3.7-11.2 1-3.1 0.1-4.4-0.8-4.7-1.1-0.3-2.1 0.3-4.7 3.4-7.8 9.1-15 19.1-15 19.1-1.1 2.1 0.5 4.6 2.8 4.6h10c2 0 3.2 2.1 2.3 3.9z"/></svg>